<?xml version="1.0" encoding="utf-8"?>
<!-- Generator: Adobe Illustrator 24.0.1, SVG Export Plug-In . SVG Version: 6.00 Build 0)  -->
<svg version="1.1" id="Camada_2_1_" xmlns="http://www.w3.org/2000/svg" xmlns:xlink="http://www.w3.org/1999/xlink" x="0px"
	 y="0px" viewBox="0 0 288.6 125.3" style="enable-background:new 0 0 288.6 125.3;" xml:space="preserve">
<title>logotype</title>
<g>
	<path d="M16.8,45h11.6c6.2,0,11.4-2,15.4-6.1c4-4.1,6.1-9.3,6.1-15.5s-2-11.5-6.1-15.5c-4.1-4.1-9.2-6.1-15.4-6.1H2.9v59.9h13.9V45
		z M16.8,13h9.5c2.8,0,5.1,1,6.9,2.9c1.8,1.9,2.7,4.4,2.7,7.4s-0.9,5.5-2.7,7.4c-1.8,1.9-4.1,2.9-6.9,2.9h-9.5V13z"/>
	<polygon points="70.3,37.8 91,37.8 91,61.6 104.8,61.6 104.8,1.7 91,1.7 91,25.9 70.3,25.9 70.3,1.7 56.4,1.7 56.4,61.6 70.3,61.6 
			"/>
	<path d="M145,63.3c9.7,0,17.5-3.1,23.3-9.2c5.8-6.1,8.7-13.6,8.7-22.5c0-8.8-2.9-16.3-8.7-22.5C162.4,3.1,154.7,0,145,0
		c-9.7,0-17.5,3.1-23.3,9.2c-5.8,6.1-8.7,13.6-8.7,22.5c0,8.8,2.9,16.3,8.7,22.5C127.5,60.3,135.3,63.3,145,63.3z M132,17.9
		c3.1-3.7,7.4-5.5,13-5.5c5.5,0,9.8,1.8,12.9,5.5c3.1,3.7,4.7,8.3,4.7,13.7s-1.6,10.1-4.7,13.7c-3.1,3.7-7.4,5.5-12.9,5.5
		c-5.5,0-9.9-1.8-13-5.5c-3.1-3.7-4.6-8.3-4.6-13.7C127.4,26.2,128.9,21.6,132,17.9z"/>
	<polygon points="193.3,61.6 207.1,61.6 207.1,14 223.6,14 223.6,1.7 176.9,1.7 176.9,14 193.3,14 	"/>
	<path d="M232.3,54.1c5.8,6.1,13.6,9.2,23.3,9.2c9.7,0,17.5-3.1,23.3-9.2c5.8-6.1,8.7-13.6,8.7-22.5c0-8.8-2.9-16.3-8.7-22.5
		C273.1,3.1,265.3,0,255.6,0c-9.7,0-17.5,3.1-23.3,9.2c-5.8,6.1-8.7,13.6-8.7,22.5C223.6,40.5,226.5,48,232.3,54.1z M242.7,17.9
		c3.1-3.7,7.4-5.5,13-5.5c5.5,0,9.8,1.8,12.9,5.5c3.1,3.7,4.7,8.3,4.7,13.7s-1.6,10.1-4.7,13.7c-3.1,3.7-7.4,5.5-12.9,5.5
		c-5.5,0-9.9-1.8-13-5.5c-3.1-3.7-4.6-8.3-4.6-13.7C238,26.2,239.5,21.6,242.7,17.9z"/>
	<path d="M56,106.4v-8.7H30.6v8.7h8.9c-1.7,5.9-6,8.9-13,8.9c-4.4,0-7.9-1.5-10.6-4.6c-2.7-3-4-6.9-3.9-11.7c0-4.9,1.2-8.9,3.8-12
		c2.6-3.1,6.3-4.6,11.2-4.6c2.9,0,5.4,0.7,7.3,2c1.9,1.3,3.1,3,3.6,5.2h12.6c-0.4-4.9-2.8-8.9-7.1-12.1c-4.3-3.2-9.8-4.8-16.3-4.8
		c-8.3,0-14.9,2.5-19.7,7.6S0,91.7,0,99.2c0,7.6,2.4,13.8,7.2,18.7s11.2,7.3,19,7.3c6.8,0,12.4-1.6,16.7-4.9
		c4.3-3.3,7.1-7.9,8.4-13.9H56z"/>
	<path d="M91.5,108.1c2.9-1.4,5.2-3.5,6.8-6.3c1.7-2.8,2.5-6,2.5-9.6c0-5.2-1.7-9.5-5-12.9c-3.4-3.4-7.6-5.1-12.8-5.1H61.9v49.6
		h11.5v-13.8h6l7.8,13.8h13L91.5,108.1z M87,98.3c-1.5,1.6-3.4,2.4-5.7,2.4h-7.9V83.6h7.9c2.3,0,4.2,0.8,5.7,2.4
		c1.5,1.6,2.2,3.7,2.2,6.2C89.2,94.6,88.5,96.7,87,98.3z"/>
	<path d="M117.6,117.8h17.6l1.7,6H149l-16.9-49.6h-11.6l-16.8,49.6h12.1L117.6,117.8z M126.4,86.7l6.2,22.1h-12.5L126.4,86.7z"/>
	<path d="M175.6,74.2h-21.1v49.6H166v-13.8h9.6c5.2,0,9.4-1.7,12.8-5.1c3.4-3.4,5-7.7,5-12.9c0-5.2-1.7-9.5-5-12.9
		C185,75.9,180.8,74.2,175.6,74.2z M179.6,98.3c-1.5,1.6-3.4,2.4-5.7,2.4H166V83.6h7.9c2.3,0,4.2,0.8,5.7,2.4
		c1.5,1.6,2.2,3.7,2.2,6.2C181.8,94.6,181.1,96.7,179.6,98.3z"/>
	<polygon points="239,123.8 239,74.2 227.5,74.2 227.5,94.3 210.3,94.3 210.3,74.2 198.8,74.2 198.8,123.8 210.3,123.8 210.3,104.1 
		227.5,104.1 227.5,123.8 	"/>
	<polygon points="251.2,123.8 264,123.8 288.6,74.2 275.9,74.2 266.8,93.8 256.2,74.2 242.9,74.2 260.4,105.1 	"/>
</g>
</svg>
